<svg height="448pt" viewBox="-20 0 448 448" width="448pt" xmlns="http://www.w3.org/2000/svg"><path d="m248 176h-12.6875l-45.65625 45.65625c-3.125 3.121094-8.1875 3.121094-11.3125 0l-45.65625-45.65625h-12.6875c-30.914062.035156-55.964844 25.085938-56 56v125.527344l40 18.328125v-127.855469h16v92.449219c4.84375-2.878907 10.367188-4.417969 16-4.449219l59.449219-.097656c16.191406-8.8125 34.144531-13.898438 52.550781-14.894532v-73.007812h16v73.207031c13.800781 1.054688 27.324219 4.433594 40 9.992188v-99.199219c-.035156-30.914062-25.085938-55.964844-56-56zm0 0"/><path d="m254.464844 336.726562c-17.914063.09375-35.523438 4.617188-51.265625 13.167969l-1.917969 1.082031c-1.199219.671876-2.546875 1.023438-3.921875 1.023438h-61.359375c-8.808594 0-15.960938 7.121094-16 15.929688.039062.261718.0625.53125.070312.796874.351563 8.542969 7.382813 15.285157 15.929688 15.273438h72v16h-88c-1.152344 0-2.292969-.246094-3.34375-.726562l-63.511719-29.121094-.71875-.351563-3.9375-1.800781h-.488281v-.222656l-22.289062-10.175782c-5.613282-2.589843-12.160157-2.132812-17.363282 1.203126-5.207031 3.335937-8.35156225 9.09375-8.347656 15.273437v1.761719c-.0195312 6.863281 3.875 13.132812 10.03125 16.160156l103.394531 51.777344c5.574219 2.757812 11.710938 4.203125 17.933594 4.222656h172.640625v-99.199219c-14.871094-7.664062-31.335938-11.734375-48.0625-11.878906-.496094-.019531-.988281-.085937-1.472656-.195313zm0 0"/><path d="m184 204.6875 28.6875-28.6875h-57.375zm0 0"/><path d="m320 352v96h88v-96zm32 80h-16v-16h16zm0 0"/><path d="m184 128c26.5-.027344 47.972656-21.5 48-48v-32c0-26.507812-21.492188-48-48-48s-48 21.492188-48 48v32c.027344 26.5 21.5 47.972656 48 48zm-32-80c.019531-13.554688 8.558594-25.628906 21.328125-30.167969l5.34375 15.078125c-6.386719 2.273438-10.65625 8.3125-10.671875 15.089844v8h-16zm0 0"/></svg>