<?xml version="1.0" encoding="iso-8859-1"?>
<!-- Generator: Adobe Illustrator 19.0.0, SVG Export Plug-In . SVG Version: 6.00 Build 0)  -->
<svg version="1.1" id="Capa_1" xmlns="http://www.w3.org/2000/svg" xmlns:xlink="http://www.w3.org/1999/xlink" x="0px" y="0px"
	 viewBox="0 0 512 512" style="enable-background:new 0 0 512 512;" xml:space="preserve">
<g>
	<g>
		<path d="M256,0c-8.291,0-15,6.709-15,15v31c0,8.291,6.709,15,15,15s15-6.709,15-15V15C271,6.709,264.291,0,256,0z"/>
	</g>
</g>
<g>
	<g>
		<path d="M192.353,66.142l-21.211-21.211c-5.859-5.859-15.352-5.859-21.211,0c-5.859,5.859-5.859,15.352,0,21.211l21.211,21.211
			c5.859,5.859,15.351,5.859,21.211,0C198.212,81.494,198.212,72.001,192.353,66.142z"/>
	</g>
</g>
<g>
	<g>
		<path d="M362.069,44.931c-5.859-5.859-15.351-5.86-21.211,0l-21.211,21.211c-5.859,5.859-5.859,15.352,0,21.211
			c5.859,5.859,15.352,5.859,21.211,0l21.211-21.211C367.928,60.283,367.928,50.79,362.069,44.931z"/>
	</g>
</g>
<g>
	<g>
		<polygon points="282.494,151 344.802,254.85 396.728,151 		"/>
	</g>
</g>
<g>
	<g>
		<polygon points="256,165.15 192.488,271 319.512,271 		"/>
	</g>
</g>
<g>
	<g>
		<polygon points="186.806,301 256,509.568 325.194,301 		"/>
	</g>
</g>
<g>
	<g>
		<polygon points="89.229,165.995 36.728,271 141.728,271 		"/>
	</g>
</g>
<g>
	<g>
		<polygon points="115.278,151 167.198,254.848 229.506,151 		"/>
	</g>
</g>
<g>
	<g>
		<polygon points="422.772,166 370.272,271 475.272,271 		"/>
	</g>
</g>
<g>
	<g>
		<polygon points="155.195,301 39.192,301 222.942,512 225.194,512 		"/>
	</g>
</g>
<g>
	<g>
		<polygon points="356.805,301 286.806,512 289.058,512 472.808,301 		"/>
	</g>
</g>
<g>
</g>
<g>
</g>
<g>
</g>
<g>
</g>
<g>
</g>
<g>
</g>
<g>
</g>
<g>
</g>
<g>
</g>
<g>
</g>
<g>
</g>
<g>
</g>
<g>
</g>
<g>
</g>
<g>
</g>
</svg>
