<?xml version="1.0"?>
<svg xmlns="http://www.w3.org/2000/svg" id="Layer_1" data-name="Layer 1" viewBox="0 0 512 512" width="512" height="512"><title>Agriculture  vehicle</title><path d="M155.8,245H73.813L36.138,328.555l11.392-1.98,8.789-21.237a6,6,0,0,1,7.838-3.245l10.667,4.414a85.06,85.06,0,0,1,19.593-19.631L90,276.228a6,6,0,0,1,3.243-7.841l24.491-10.158a6,6,0,0,1,7.841,3.244l4.417,10.648a85.093,85.093,0,0,1,27.746,0l4.411-10.666a6,6,0,0,1,7.84-3.251l24.5,10.139a6,6,0,0,1,3.249,7.837l-4.406,10.653a83.594,83.594,0,0,1,19.631,19.6l10.644-4.416a6,6,0,0,1,7.84,3.243l8.91,21.475,10.893,1.8L210.2,245Z"/><path d="M215.043,372.1a72.918,72.918,0,0,0-.018-32.395,6,6,0,0,1,3.549-6.89l9.648-4L222.659,315.4l-9.646,4a6,6,0,0,1-7.411-2.4c-.188-.306-.382-.609-.575-.9a71.969,71.969,0,0,0-22.308-21.935,6,6,0,0,1-2.358-7.377l3.993-9.654-13.409-5.55-4,9.662a6,6,0,0,1-6.884,3.555,72.8,72.8,0,0,0-32.385,0,6,6,0,0,1-6.889-3.548l-4-9.646-13.407,5.561,4,9.645a6,6,0,0,1-2.355,7.382A72.719,72.719,0,0,0,82.16,317.116a6,6,0,0,1-7.38,2.362l-9.664-4L59.567,328.9l9.65,3.992a6,6,0,0,1,3.556,6.878,72.069,72.069,0,0,0-.224,31.282c.075.353.147.692.23,1.034a6,6,0,0,1-3.533,6.958l-9.656,4,5.56,13.406,9.647-4a6,6,0,0,1,7.382,2.355A72.975,72.975,0,0,0,105.1,417.7a6,6,0,0,1,2.355,7.375l-3.991,9.65,13.414,5.545,3.989-9.643a6,6,0,0,1,6.879-3.556,72.89,72.89,0,0,0,32.392-.012,5.994,5.994,0,0,1,6.888,3.547l4,9.636,13.407-5.56-4-9.636a6,6,0,0,1,2.354-7.382,72.793,72.793,0,0,0,22.887-22.925,6,6,0,0,1,7.379-2.361l9.652,3.993,5.546-13.406-9.648-3.99A6,6,0,0,1,215.043,372.1Zm-33.111,17.817a50.666,50.666,0,0,1-35.172,16.933q-1.45.081-2.886.081a51,51,0,0,1-37.945-85.04,51,51,0,0,1,66.041-8.548c.721.473,1.459.992,2.178,1.533a50.988,50.988,0,0,1,7.784,75.041Z"/><path d="M135,155.451V233h15V194.209c0-21.555-7.309-32.212-11.742-36.647A10.372,10.372,0,0,0,135,155.451Z"/><path d="M166.993,324.5c-.569-.427-1.095-.8-1.616-1.138a38.665,38.665,0,0,0-21.419-6.442q-1.114,0-2.236.063a39,39,0,0,0,2.16,77.94c.732,0,1.466-.021,2.206-.062A38.992,38.992,0,0,0,166.993,324.5Z"/><polygon points="252.147 303 277 303 277 297 249.111 297 252.147 303"/><rect x="377" y="70" width="6" height="158"/><path d="M437.247,363.4c-.339-.285-.64-.522-.946-.749a23.98,23.98,0,1,0,.946.749Z"/><path d="M458.957,337.077c-.77-.648-1.532-1.249-2.311-1.826a57.791,57.791,0,0,0-75.307,5.478l0,0a57.838,57.838,0,1,0,77.622-3.656ZM422.168,417.4a35.708,35.708,0,1,1,21.287-64.376c.5.368.99.757,1.472,1.162A35.7,35.7,0,0,1,422.168,417.4Z"/><path d="M380.543,325.367a69.969,69.969,0,0,1,78.653-2.961l11.43-43.152C468.341,271.969,456.908,240,433.7,240H289v90h85.676C376.54,329,378.505,326.878,380.543,325.367Zm36.4-76.171a6,6,0,0,1,7.878,3.151L443,294.75a6,6,0,1,1-11.029,4.727l-18.174-42.4A6,6,0,0,1,416.945,249.2Zm-21.2,0a6,6,0,0,1,7.878,3.151l18.175,42.4a6,6,0,1,1-11.029,4.727l-18.175-42.4A6,6,0,0,1,395.744,249.2Zm-21.2,0a6,6,0,0,1,7.878,3.151l18.175,42.4a6,6,0,1,1-11.03,4.727l-18.174-42.4A6,6,0,0,1,374.543,249.2Z"/><path d="M259.34,185.471c-5.141-2.608-10.592.236-21.874,22.437s-10.368,28.28-5.23,30.9a6.58,6.58,0,0,0,3.005.761c4.439,0,7.893-4.952,9.914-7.85,1.072-1.537,2.207-3.3,3.371-5.228l29.413,46.571,10.147-6.409L255.1,214.418C265.342,193.809,264.331,188.009,259.34,185.471Z"/></svg>
